<?xml version="1.0" standalone="no"?>
<!DOCTYPE svg PUBLIC "-//W3C//DTD SVG 20010904//EN"
 "http://www.w3.org/TR/2001/REC-SVG-20010904/DTD/svg10.dtd">
<svg version="1.0" xmlns="http://www.w3.org/2000/svg"
 width="564.000000pt" height="564.000000pt" viewBox="0 0 564.000000 564.000000"
 preserveAspectRatio="xMidYMid meet">

<g transform="translate(0.000000,564.000000) scale(0.100000,-0.100000)"
fill="#FAD8D6" stroke="none">
<path d="M4743 4692 c-26 -21 -53 -41 -60 -45 -6 -4 -55 8 -109 27 -98 34
-124 34 -124 1 0 -15 71 -73 265 -215 77 -56 140 -106 140 -110 0 -5 -83 -62
-184 -128 l-184 -120 -51 24 c-61 29 -87 30 -109 6 -27 -30 -20 -49 40 -106
l57 -53 -42 -28 c-44 -29 -51 -45 -28 -65 12 -9 22 -6 53 15 l38 26 14 -51
c15 -55 32 -63 77 -33 23 14 25 22 23 72 l-3 56 205 122 c112 68 206 123 210
123 3 0 29 -105 58 -232 69 -308 69 -308 87 -308 20 0 31 31 41 115 l8 70 65
35 c48 26 66 41 68 59 5 34 -13 40 -69 26 l-49 -13 1 31 c0 18 3 49 7 71 6 34
12 40 56 56 57 22 86 46 86 71 0 28 -18 33 -76 19 -30 -7 -56 -11 -58 -9 -2 2
-2 36 1 75 l5 70 144 88 c79 48 149 96 154 106 16 29 12 77 -6 84 -39 15 -83
1 -225 -70 l-151 -75 -42 16 c-22 10 -52 21 -65 26 l-24 10 36 37 c42 43 45
57 16 72 -17 10 -29 5 -76 -31 l-56 -42 -69 22 c-37 12 -68 26 -68 31 0 4 13
19 28 32 39 32 46 46 32 63 -19 23 -34 18 -87 -23z"/>
<path d="M2605 3955 c-5 -2 -22 -6 -37 -9 -28 -6 -34 -20 -19 -44 7 -11 19
-11 70 -1 54 10 61 14 61 35 0 21 -5 24 -32 23 -18 0 -37 -2 -43 -4z"/>
<path d="M2785 3929 c-4 -12 -3 -25 2 -29 15 -14 118 -39 126 -31 20 20 0 45
-48 62 -66 23 -72 23 -80 -2z"/>
<path d="M2378 3848 c-50 -42 -57 -58 -34 -77 10 -9 25 -2 65 31 28 23 51 45
51 48 0 4 -8 14 -17 23 -17 14 -22 12 -65 -25z"/>
<path d="M3011 3831 c-15 -27 -16 -25 39 -66 41 -30 53 -35 65 -25 24 20 18
35 -27 67 -64 45 -66 45 -77 24z"/>
<path d="M4220 3778 c-18 -24 -37 -48 -42 -54 -5 -7 0 -17 15 -27 23 -15 25
-14 66 39 41 53 42 56 25 69 -26 20 -27 20 -64 -27z"/>
<path d="M2199 3669 l-42 -50 20 -21 21 -20 41 52 c47 59 48 65 22 80 -16 8
-26 2 -62 -41z"/>
<path d="M3196 3675 c-18 -13 -17 -16 24 -65 23 -27 45 -50 48 -50 4 0 15 7
26 15 17 13 16 16 -25 64 -24 28 -46 51 -49 51 -3 0 -13 -7 -24 -15z"/>
<path d="M1120 3641 c0 -12 -1 -24 -2 -28 -3 -6 123 -35 129 -30 1 1 4 14 8
28 6 25 4 27 -42 33 -26 4 -58 10 -70 13 -18 4 -23 1 -23 -16z"/>
<path d="M928 3624 c-53 -24 -56 -28 -46 -48 6 -11 12 -22 13 -24 2 -2 117 47
123 53 5 5 -18 45 -26 45 -4 0 -33 -12 -64 -26z"/>
<path d="M4113 3607 c-5 -6 -21 -33 -36 -58 -27 -47 -26 -52 10 -73 11 -6 73
89 73 112 0 19 -37 33 -47 19z"/>
<path d="M1350 3565 c-7 -14 -11 -26 -9 -28 2 -2 30 -18 61 -36 l57 -32 12 23
c13 24 12 25 -71 75 l-37 22 -13 -24z"/>
<path d="M736 3472 c-41 -57 -43 -63 -17 -79 16 -10 23 -5 56 39 30 38 36 54
29 66 -18 29 -31 24 -68 -26z"/>
<path d="M2056 3463 c-33 -52 -34 -57 -18 -69 9 -7 20 -14 24 -14 4 0 24 26
44 57 34 53 35 57 18 70 -10 7 -21 13 -25 13 -4 0 -23 -25 -43 -57z"/>
<path d="M3325 3469 c-4 -5 3 -37 15 -70 16 -43 27 -58 37 -55 8 4 19 6 24 6
14 0 11 23 -12 79 -21 50 -48 67 -64 40z"/>
<path d="M1555 3430 c-10 -11 -16 -22 -14 -24 2 -2 26 -22 53 -44 l49 -41 18
22 c17 21 17 23 -9 45 -74 62 -77 64 -97 42z"/>
<path d="M3977 3345 c-33 -67 -33 -69 -3 -83 23 -10 25 -8 51 51 25 58 25 62
9 74 -10 7 -21 13 -24 13 -3 0 -18 -25 -33 -55z"/>
<path d="M603 3253 c-25 -54 -25 -57 -8 -70 11 -7 22 -13 25 -13 4 0 19 28 33
62 21 47 24 64 15 70 -27 16 -40 6 -65 -49z"/>
<path d="M1931 3253 c-32 -53 -33 -57 -16 -70 11 -7 21 -13 25 -13 3 0 21 25
39 57 32 53 33 57 16 70 -11 7 -21 13 -25 13 -3 0 -21 -25 -39 -57z"/>
<path d="M1737 3272 c-16 -17 -13 -21 33 -67 49 -48 50 -48 70 -30 l20 18 -27
30 c-16 16 -40 37 -54 48 -25 18 -27 18 -42 1z"/>
<path d="M3370 3169 l0 -70 28 3 c26 3 27 5 30 71 l4 67 -31 0 -31 0 0 -71z"/>
<path d="M3875 3124 c-30 -68 -30 -70 -5 -84 17 -9 23 -4 50 51 17 33 30 62
28 64 -2 1 -13 8 -25 14 -22 11 -24 8 -48 -45z"/>
<path d="M525 3043 c-4 -21 -9 -50 -11 -64 -4 -21 0 -28 18 -32 32 -9 37 0 44
71 7 62 7 62 -19 62 -22 0 -27 -5 -32 -37z"/>
<path d="M3341 2987 c-17 -45 -34 -107 -30 -111 2 -2 14 -7 26 -10 20 -6 24
-1 40 51 22 74 22 74 -5 84 -19 7 -24 4 -31 -14z"/>
<path d="M3770 2899 c-30 -58 -30 -62 -13 -75 10 -7 20 -14 23 -14 7 0 60 106
60 120 0 5 -9 14 -20 20 -17 9 -23 4 -50 -51z"/>
<path d="M511 2823 c0 -10 6 -40 13 -68 10 -44 14 -50 36 -47 13 1 25 3 26 5
1 1 -3 30 -9 65 -10 59 -12 62 -39 62 -20 0 -28 -5 -27 -17z"/>
<path d="M3230 2720 l-30 -60 25 -12 c30 -13 25 -17 58 52 24 50 25 56 10 68
-26 19 -31 16 -63 -48z"/>
<path d="M3652 2680 c-31 -57 -32 -60 -13 -70 31 -16 35 -13 65 47 26 54 27
58 10 70 -10 7 -20 13 -23 13 -3 0 -21 -27 -39 -60z"/>
<path d="M586 2597 c-17 -12 -16 -16 10 -70 30 -60 34 -63 64 -47 17 9 17 13
-11 70 -31 64 -35 67 -63 47z"/>
<path d="M3104 2515 c-36 -54 -37 -56 -18 -70 10 -8 22 -15 25 -15 3 0 23 26
43 57 35 53 36 58 20 70 -27 20 -31 17 -70 -42z"/>
<path d="M3528 2476 c-34 -51 -35 -56 -19 -70 10 -9 20 -16 24 -16 4 0 23 26
43 57 34 53 35 57 18 70 -10 7 -21 13 -24 13 -4 0 -23 -24 -42 -54z"/>
<path d="M702 2383 l-22 -18 40 -50 c42 -53 57 -60 73 -34 10 15 -7 45 -63
112 -4 4 -17 0 -28 -10z"/>
<path d="M2956 2318 c-38 -48 -39 -51 -21 -64 26 -19 28 -19 61 24 44 54 47
61 34 77 -20 24 -33 17 -74 -37z"/>
<path d="M3387 2280 c-43 -57 -44 -61 -17 -78 17 -11 24 -6 61 43 40 53 41 56
23 70 -10 8 -21 15 -24 15 -3 0 -22 -22 -43 -50z"/>
<path d="M851 2186 c-15 -18 -5 -39 41 -84 l34 -32 19 20 c18 20 18 21 -25 65
-49 50 -52 51 -69 31z"/>
<path d="M2801 2139 c-43 -51 -44 -51 -24 -71 20 -19 20 -19 67 33 44 49 46
53 30 70 -10 11 -20 19 -23 19 -3 0 -26 -23 -50 -51z"/>
<path d="M3226 2099 c-45 -49 -46 -52 -29 -71 16 -18 18 -18 67 31 l51 51 -21
20 -21 21 -47 -52z"/>
<path d="M1019 2014 c-12 -14 -7 -22 36 -60 53 -46 62 -48 79 -20 9 14 3 24
-34 56 -50 44 -62 47 -81 24z"/>
<path d="M2633 1964 c-48 -51 -50 -56 -28 -74 14 -11 23 -6 65 35 47 46 49 50
33 67 -9 10 -19 18 -22 18 -3 0 -25 -21 -48 -46z"/>
<path d="M3046 1936 c-45 -39 -47 -44 -35 -64 8 -12 16 -22 19 -22 3 0 27 20
54 43 44 39 48 45 37 65 -6 12 -15 22 -19 22 -4 -1 -29 -20 -56 -44z"/>
<path d="M1210 1860 c-9 -17 -3 -24 46 -55 44 -28 59 -33 70 -24 24 20 16 35
-37 68 -59 36 -65 37 -79 11z"/>
<path d="M2456 1794 c-49 -45 -49 -45 -30 -65 19 -19 20 -19 69 25 42 37 48
47 39 62 -17 28 -26 26 -78 -22z"/>
<path d="M2852 1798 c-54 -34 -62 -47 -37 -68 12 -10 24 -6 67 20 29 18 54 34
56 35 4 4 -21 45 -28 45 -3 0 -29 -15 -58 -32z"/>
<path d="M1422 1734 c-11 -23 -8 -26 49 -55 34 -17 62 -29 64 -27 1 2 7 12 13
24 10 18 5 23 -52 51 l-63 32 -11 -25z"/>
<path d="M2638 1683 c-32 -15 -58 -29 -58 -33 0 -3 6 -15 14 -26 14 -19 15
-18 70 8 57 28 61 34 50 62 -8 20 -6 20 -76 -11z"/>
<path d="M2276 1635 c-30 -27 -46 -48 -41 -55 11 -18 -14 -30 -67 -30 -43 0
-48 -2 -48 -22 0 -15 -15 -37 -42 -60 l-43 -37 20 -21 21 -20 59 54 c40 37 68
56 89 58 22 2 32 9 34 23 2 11 26 41 54 66 47 42 50 47 37 67 -8 12 -16 22
-19 22 -3 -1 -27 -21 -54 -45z"/>
<path d="M1647 1643 c-4 -3 -7 -14 -7 -24 0 -12 18 -23 62 -38 34 -11 63 -19
65 -18 1 2 4 14 5 26 3 20 -5 26 -47 42 -57 20 -69 22 -78 12z"/>
<path d="M2414 1593 c-52 -20 -61 -27 -57 -44 8 -30 16 -31 82 -7 53 19 60 25
55 43 -10 33 -16 33 -80 8z"/>
<path d="M1875 1560 c-9 -29 3 -36 72 -45 61 -7 58 -8 67 21 7 24 0 27 -86 39
-42 6 -47 5 -53 -15z"/>
<path d="M1902 1328 c-28 -22 -52 -43 -52 -47 0 -3 7 -14 15 -24 13 -18 16
-17 64 20 50 38 62 62 38 81 -9 8 -26 0 -65 -30z"/>
<path d="M1703 1179 c-46 -36 -51 -43 -40 -60 6 -10 16 -19 21 -19 11 0 106
70 106 78 -1 9 -26 42 -31 41 -2 0 -27 -18 -56 -40z"/>
<path d="M782 1159 c-51 -26 -89 -77 -98 -136 -12 -77 41 -148 214 -282 l42
-33 25 57 c33 73 75 219 75 257 0 57 -45 115 -112 143 -51 21 -95 19 -146 -6z
m101 -41 c9 -7 19 -25 22 -40 5 -21 1 -33 -19 -52 -30 -31 -59 -33 -86 -6 -24
24 -26 67 -3 92 19 21 62 24 86 6z"/>
<path d="M1506 1035 c-51 -40 -50 -38 -36 -66 11 -19 13 -18 65 18 57 39 63
51 43 71 -17 17 -20 16 -72 -23z"/>
<path d="M1303 893 c-46 -31 -50 -37 -40 -54 16 -25 23 -24 79 14 50 33 56 45
36 65 -16 16 -15 16 -75 -25z"/>
<path d="M1107 764 c-31 -19 -57 -39 -57 -42 0 -4 6 -15 14 -24 11 -16 17 -14
66 15 60 36 66 45 48 70 -12 16 -17 15 -71 -19z"/>
<path d="M930 650 c-39 -39 -14 -100 43 -100 55 0 79 73 35 104 -30 21 -54 20
-78 -4z"/>
</g>
</svg>
